<?xml version="1.0" encoding="utf-8"?>
<!-- Generator: Adobe Illustrator 24.0.0, SVG Export Plug-In . SVG Version: 6.00 Build 0)  -->
<svg version="1.1" id="Capa_1" xmlns="http://www.w3.org/2000/svg" xmlns:xlink="http://www.w3.org/1999/xlink" x="0px" y="0px"
	 viewBox="0 0 591.5 572.6" style="enable-background:new 0 0 591.5 572.6;" xml:space="preserve">
<style type="text/css">
	.st0{fill:url(#SVGID_1_);}
	.st1{fill:url(#SVGID_2_);}
	.st2{opacity:0.8;fill:url(#SVGID_3_);enable-background:new    ;}
	.st3{opacity:0.8;fill:url(#SVGID_4_);enable-background:new    ;}
	.st4{opacity:0.8;fill:url(#SVGID_5_);enable-background:new    ;}
	.st5{opacity:0.8;fill:url(#SVGID_6_);enable-background:new    ;}
	.st6{opacity:0.8;fill:url(#SVGID_7_);enable-background:new    ;}
	.st7{opacity:0.8;fill:url(#SVGID_8_);enable-background:new    ;}
	.st8{fill:#CCDFEF;}
	.st9{opacity:0.8;fill:url(#SVGID_9_);enable-background:new    ;}
	.st10{fill:#FFFFFF;}
	.st11{fill:url(#SVGID_10_);}
	.st12{fill:#809297;}
	.st13{fill:url(#XMLID_2_);}
	.st14{fill:#8A9EA2;}
	.st15{fill:url(#XMLID_3_);}
	.st16{fill:#92A7AD;}
	.st17{fill:url(#XMLID_4_);}
	.st18{opacity:0.1;fill:#FFFFFF;enable-background:new    ;}
	.st19{fill:#FEC970;}
	.st20{fill:url(#SVGID_11_);}
	.st21{fill:url(#XMLID_5_);}
	.st22{fill:url(#SVGID_12_);}
	.st23{fill:url(#SVGID_13_);}
	.st24{fill:url(#SVGID_14_);}
	.st25{opacity:0.7;fill:url(#SVGID_15_);enable-background:new    ;}
	.st26{opacity:0.7;fill:url(#SVGID_16_);enable-background:new    ;}
	.st27{fill:url(#SVGID_17_);}
	.st28{opacity:0.8;fill:url(#SVGID_18_);enable-background:new    ;}
	.st29{fill:url(#SVGID_19_);}
	.st30{fill:#FCB316;}
	.st31{fill:#F9A01B;}
	.st32{fill:#FFCB29;}
	.st33{opacity:0.7;fill:url(#SVGID_20_);enable-background:new    ;}
	.st34{opacity:0.7;fill:url(#SVGID_21_);enable-background:new    ;}
	.st35{fill:url(#SVGID_22_);}
	.st36{opacity:0.8;fill:url(#SVGID_23_);enable-background:new    ;}
	.st37{fill:url(#SVGID_24_);}
	.st38{fill:#D32E2E;}
	.st39{opacity:0.8;fill:url(#SVGID_25_);enable-background:new    ;}
	.st40{fill:#EF5451;}
	.st41{fill:none;stroke:#FFFFFF;stroke-width:1.0404;stroke-miterlimit:9.9998;}
	.st42{fill:none;stroke:#FFFFFF;stroke-width:1.0404;stroke-miterlimit:10;}
	.st43{opacity:0.7;fill:url(#SVGID_26_);enable-background:new    ;}
	.st44{opacity:0.7;fill:url(#SVGID_27_);enable-background:new    ;}
	.st45{fill:url(#SVGID_28_);}
	.st46{fill:#25284C;}
	.st47{fill:#111638;}
	.st48{fill:#F5F6F6;}
	.st49{fill:#7B93B9;}
	.st50{fill:#6B7EA2;}
	.st51{fill:none;stroke:#FFFFFF;stroke-width:0.7521;stroke-miterlimit:10;}
	.st52{opacity:0.8;fill:url(#SVGID_29_);enable-background:new    ;}
	.st53{opacity:0.8;fill:url(#SVGID_30_);enable-background:new    ;}
	.st54{opacity:0.8;fill:url(#SVGID_31_);enable-background:new    ;}
	.st55{fill:url(#SVGID_32_);}
	.st56{fill:url(#SVGID_33_);}
	.st57{opacity:0.7;fill:url(#SVGID_34_);enable-background:new    ;}
	.st58{fill:url(#SVGID_35_);}
	.st59{fill:none;stroke:#FFFFFF;stroke-width:1.0404;stroke-linecap:round;stroke-linejoin:round;stroke-miterlimit:10;}
	.st60{fill:#FEED58;}
	.st61{fill:none;stroke:#FFFFFF;stroke-width:0.5202;stroke-linecap:round;stroke-linejoin:round;stroke-miterlimit:10;}
	.st62{fill:url(#SVGID_36_);}
</style>
<g>
	
		<linearGradient id="SVGID_1_" gradientUnits="userSpaceOnUse" x1="297.5409" y1="198.3843" x2="297.5409" y2="680.4332" gradientTransform="matrix(1 0 0 -1 0 711.8286)">
		<stop  offset="1.860120e-03" style="stop-color:#994399"/>
		<stop  offset="1" style="stop-color:#2F2141"/>
	</linearGradient>
	<path class="st0" d="M559.2,394.9c-0.8,4.4-1.7,8.8-2.7,13.1c-0.8,3.3-1.6,6.6-2.5,9.9c-5,18.1-12.2,36.1-22,52.1
		c-10.1,16.3-23,30.5-39.4,40.4c-8.8,5.3-18.3,9.2-28.2,12H128.6c-32.5-17.6-61-48.7-54.8-85c5.4-31.6,10.4-63.2-0.6-92.4
		c-8.1-21.2-23.9-38.6-32.9-59.5c-22.1-51.7,5.7-98.6,47-127.3c1.5-1,3-2.1,4.5-3c0.4-0.2,0.7-0.5,1.1-0.7c1.7-1.1,3.4-2.2,5-3.3
		c3.6-2.5,7-5.1,10.3-7.8h0c2.5-2.1,5-4.2,7.4-6.3c0.6-0.5,1.2-1,1.7-1.5c3.4-3,6.7-6.1,9.9-9.3c1.7-1.7,3.4-3.4,5.1-5.1
		c13.2-13.2,25.9-27.1,39.9-39.2c13.3-11.5,27.7-21.4,44.7-27.6c10.6-3.9,21.5-6.5,32.5-8.1c43.5-6.1,88.8,5.5,124.1,32.5
		c1.7,1.3,3.5,2.7,5.2,4.1c18.3,14.9,35.1,34,42.5,56c9.4,27.7,23.2,54.4,48.3,70.8c20.8,13.6,40.4,22.6,57,42.3
		c6,7.1,11.1,14.6,15.5,22.4c3.6,6.4,6.6,12.9,9.2,19.7c3.4,9,6,18.2,7.8,27.6C563.8,345.6,563.4,370.5,559.2,394.9z"/>
	
		<linearGradient id="SVGID_2_" gradientUnits="userSpaceOnUse" x1="59.3072" y1="203.1515" x2="32.9997" y2="368.8892" gradientTransform="matrix(1 0 0 -1 0 711.8286)">
		<stop  offset="1.860120e-03" style="stop-color:#994399"/>
		<stop  offset="1" style="stop-color:#2F2141"/>
	</linearGradient>
	<path class="st1" d="M36.6,451c-0.5,9.2,0,18.8,4.6,26.8c3.9,6.7,12.9,11.8,19.2,7.3c4.8-3.4,5.1-10.5,3.5-16.1
		c-1.6-5.6-4.6-10.9-5.1-16.8c-0.7-9.2,10.2-32.7-6.1-33.8C38,417.4,37.1,441.9,36.6,451z"/>
	<g>
		
			<linearGradient id="SVGID_3_" gradientUnits="userSpaceOnUse" x1="158.4303" y1="199.6653" x2="163.448" y2="268.5447" gradientTransform="matrix(1 0 0 -1 0 711.8286)">
			<stop  offset="0" style="stop-color:#FFFFFF;stop-opacity:0"/>
			<stop  offset="1" style="stop-color:#662F8C"/>
		</linearGradient>
		<ellipse class="st2" cx="160.5" cy="483.5" rx="31.7" ry="12.5"/>
		
			<linearGradient id="SVGID_4_" gradientUnits="userSpaceOnUse" x1="319.9999" y1="198.0206" x2="325.0176" y2="266.8995" gradientTransform="matrix(1 0 0 -1 0 711.8286)">
			<stop  offset="0" style="stop-color:#FFFFFF;stop-opacity:0"/>
			<stop  offset="1" style="stop-color:#662F8C"/>
		</linearGradient>
		<ellipse class="st3" cx="322.1" cy="485.1" rx="31.7" ry="12.5"/>
		
			<linearGradient id="SVGID_5_" gradientUnits="userSpaceOnUse" x1="332.5493" y1="272.5905" x2="108.1207" y2="275.3275" gradientTransform="matrix(1 0 0 -1 0 711.8286)">
			<stop  offset="0" style="stop-color:#FFFFFF;stop-opacity:0"/>
			<stop  offset="1" style="stop-color:#662F8C"/>
		</linearGradient>
		<polygon class="st4" points="139.5,428.6 168.1,428.6 231.8,458.2 223.5,477 253.3,477 318,436.8 238.7,409.1 191.6,398.5 		"/>
		
			<linearGradient id="SVGID_6_" gradientUnits="userSpaceOnUse" x1="267.5624" y1="497.3859" x2="146.2257" y2="361.4523" gradientTransform="matrix(1 0 0 -1 0 711.8286)">
			<stop  offset="0" style="stop-color:#FFFFFF;stop-opacity:0"/>
			<stop  offset="1" style="stop-color:#662F8C"/>
		</linearGradient>
		<rect x="145.4" y="211.9" class="st5" width="156.9" height="103"/>
		
			<linearGradient id="SVGID_7_" gradientUnits="userSpaceOnUse" x1="639.2239" y1="293.3199" x2="381.447" y2="293.3199" gradientTransform="matrix(1 0 0 -1 0 711.8286)">
			<stop  offset="0" style="stop-color:#FFFFFF;stop-opacity:0"/>
			<stop  offset="1" style="stop-color:#662F8C"/>
		</linearGradient>
		<path class="st6" d="M559.2,367v27.9c-0.8,4.4-1.7,8.8-2.7,13.1c-0.8,3.3-1.6,6.6-2.5,9.9c-5,18.1-12.2,36.1-22,52.1h-82V367
			H559.2z"/>
		
			<linearGradient id="SVGID_8_" gradientUnits="userSpaceOnUse" x1="601.5145" y1="370.5899" x2="326.8106" y2="370.5899" gradientTransform="matrix(1 0 0 -1 0 711.8286)">
			<stop  offset="0" style="stop-color:#FFFFFF;stop-opacity:0"/>
			<stop  offset="1" style="stop-color:#662F8C"/>
		</linearGradient>
		<path class="st7" d="M559.2,321.7v73.2c-0.8,4.4-1.7,8.8-2.7,13.1H327.7V274.4h214.5c3.6,6.4,6.6,12.9,9.2,19.7
			C554.8,303,557.4,312.3,559.2,321.7z"/>
		<g>
			<path class="st8" d="M379,375.5V302H214.7v73.5l0,0c0,12.1,8,24.3,24.1,33.5c32.1,18.5,84.1,18.5,116.2,0
				C371,399.8,379,387.7,379,375.5z"/>
			
				<linearGradient id="SVGID_9_" gradientUnits="userSpaceOnUse" x1="284.5888" y1="349.3299" x2="408.1085" y2="349.3299" gradientTransform="matrix(1 0 0 -1 0 711.8286)">
				<stop  offset="0" style="stop-color:#FFFFFF;stop-opacity:0"/>
				<stop  offset="1" style="stop-color:#662F8C"/>
			</linearGradient>
			<path class="st9" d="M379,375.5V302H214.7v73.5l0,0c0,12.1,8,24.3,24.1,33.5c32.1,18.5,84.1,18.5,116.2,0
				C371,399.8,379,387.7,379,375.5z"/>
			<ellipse class="st10" cx="296.8" cy="302" rx="82.2" ry="47.4"/>
			<g>
				
					<linearGradient id="SVGID_10_" gradientUnits="userSpaceOnUse" x1="296.8484" y1="495.2125" x2="296.8484" y2="332.5656" gradientTransform="matrix(1 0 0 -1 0 711.8286)">
					<stop  offset="1.694780e-03" style="stop-color:#45C0BD"/>
					<stop  offset="1" style="stop-color:#44C0BC;stop-opacity:0"/>
				</linearGradient>
				<ellipse class="st11" cx="296.8" cy="292.8" rx="82.2" ry="47.4"/>
				<g>
					<path id="XMLID_914_" class="st12" d="M316.9,278.6c-0.3,8.6-9.8,15.2-21.1,14.8c-11.4-0.4-20.4-7.6-20.1-16.2
						s9.8-15.2,21.1-14.8S317.2,270.1,316.9,278.6z"/>
					
						<linearGradient id="XMLID_2_" gradientUnits="userSpaceOnUse" x1="275.6116" y1="433.8749" x2="316.8853" y2="433.8749" gradientTransform="matrix(1 0 0 -1 0 711.8286)">
						<stop  offset="3.946110e-03" style="stop-color:#FFFFFF;stop-opacity:0"/>
						<stop  offset="1" style="stop-color:#92A7AD"/>
					</linearGradient>
					<path id="XMLID_913_" class="st13" d="M316.9,278.6c-0.3,8.6-9.8,15.2-21.1,14.8c-11.4-0.4-20.4-7.6-20.1-16.2
						s9.8-15.2,21.1-14.8S317.2,270.1,316.9,278.6z"/>
					<path id="XMLID_912_" class="st14" d="M330.5,260.2c-0.4,10.4-15.7,18.4-34.3,17.8c-18.6-0.6-33.4-9.6-33-20
						s15.7-18.4,34.3-17.8C316.1,240.8,330.9,249.7,330.5,260.2z"/>
					
						<linearGradient id="XMLID_3_" gradientUnits="userSpaceOnUse" x1="285.3358" y1="452.7899" x2="324.3637" y2="452.7899" gradientTransform="matrix(1 0 0 -1 0 711.8286)">
						<stop  offset="3.946110e-03" style="stop-color:#FFFFFF;stop-opacity:0"/>
						<stop  offset="1" style="stop-color:#92A7AD"/>
					</linearGradient>
					<path id="XMLID_907_" class="st15" d="M330.5,260.2c-0.4,10.4-15.7,18.4-34.3,17.8c-18.6-0.6-33.4-9.6-33-20
						s15.7-18.4,34.3-17.8C316.1,240.8,330.9,249.7,330.5,260.2z"/>
					
						<ellipse id="XMLID_906_" transform="matrix(3.360119e-02 -0.9994 0.9994 3.360119e-02 40.0547 536.1183)" class="st16" cx="297.3" cy="247.3" rx="18.9" ry="33.7"/>
					
						<linearGradient id="XMLID_4_" gradientUnits="userSpaceOnUse" x1="279.1665" y1="464.4799" x2="326.1277" y2="464.4799" gradientTransform="matrix(1 0 0 -1 0 711.8286)">
						<stop  offset="3.946110e-03" style="stop-color:#FFFFFF;stop-opacity:0"/>
						<stop  offset="1" style="stop-color:#92A7AD"/>
					</linearGradient>
					<path id="XMLID_905_" class="st17" d="M330.9,248.5c-0.4,10.4-15.7,18.4-34.3,17.8s-33.4-9.6-33-20
						c0.4-10.4,15.7-18.4,34.3-17.8C316.5,229.1,331.3,238,330.9,248.5z"/>
					<path id="XMLID_904_" class="st18" d="M268.7,251.6c-0.9,0.5-2.3-0.3-3-1.8c-0.7-1.5-0.6-3,0.4-3.5s2.3,0.3,3,1.8
						C269.8,249.6,269.6,251.2,268.7,251.6z"/>
					<path id="XMLID_897_" class="st18" d="M270.5,254.4c-0.6,0.3-1.3,0.1-1.6-0.4c-0.3-0.5,0-1.2,0.6-1.5c0.6-0.3,1.3-0.1,1.6,0.4
						S271.1,254.1,270.5,254.4z"/>
					<path id="XMLID_896_" class="st18" d="M268.8,264.2c-0.9,0.5-2.3-0.3-3-1.8c-0.7-1.5-0.6-3,0.4-3.5s2.3,0.3,3,1.8
						C269.9,262.2,269.7,263.8,268.8,264.2z"/>
					<path id="XMLID_895_" class="st18" d="M270.6,267c-0.6,0.3-1.3,0.1-1.6-0.4c-0.3-0.5,0-1.2,0.6-1.5c0.6-0.3,1.3-0.1,1.6,0.4
						C271.5,266.1,271.2,266.7,270.6,267z"/>
					<path id="XMLID_894_" class="st19" d="M358.1,168.4c0.2-34-27.1-56.5-60.9-56.7c-33.8-0.2-61.4,22-61.6,56
						c-0.2,33.3,16.8,38.3,25.5,55.4c2.7,5.4,1.7,10.1,1.7,10.1c-0.1,12.9,14,20.2,33.6,20.4c19.6,0.1,33.7-7,33.8-19.9
						c0,0-0.9-4.8,1.9-10.1C340.9,206.5,357.9,201.7,358.1,168.4z"/>
					
						<linearGradient id="SVGID_11_" gradientUnits="userSpaceOnUse" x1="282.6462" y1="551.4131" x2="335.7886" y2="488.528" gradientTransform="matrix(1 0 0 -1 0 711.8286)">
						<stop  offset="3.946110e-03" style="stop-color:#FFFFFF;stop-opacity:0"/>
						<stop  offset="1" style="stop-color:#FEC970"/>
					</linearGradient>
					<path class="st20" d="M358.1,168.4c0,2.1-0.1,4-0.2,5.9c-0.1,1.4-0.2,2.8-0.4,4.1c-0.9,6.8-2.6,12-4.9,16.5
						c0,0.1-0.1,0.2-0.1,0.3c-5.6,11.1-14.2,17-19.9,27.1c-0.2,0.4-0.4,0.8-0.6,1.2c-2.8,5.3-1.9,10.1-1.9,10.1c0,0.5,0,1-0.1,1.5
						c0,0.2,0,0.5-0.1,0.7c0,0.1,0,0.2,0,0.3c0,0.2-0.1,0.4-0.1,0.6c0,0.2-0.1,0.4-0.1,0.6c-0.1,0.3-0.1,0.6-0.2,0.9c0,0,0,0,0,0.1
						c-0.2,0.8-0.6,1.6-1,2.3c0,0,0,0.1-0.1,0.1c-3.3,6.4-11.2,10.5-21.7,12c-3.2,0.5-6.7,0.7-10.3,0.7
						c-19.6-0.1-33.6-7.4-33.6-20.4c0,0,1-4.8-1.7-10.1c-8.7-17.1-25.7-22.1-25.5-55.4c0.2-34,27.8-56.2,61.6-56
						C331,111.9,358.3,134.4,358.1,168.4z"/>
					
						<linearGradient id="XMLID_5_" gradientUnits="userSpaceOnUse" x1="363.3867" y1="532.1907" x2="363.3867" y2="501.5253" gradientTransform="matrix(0.9996 -2.730000e-02 -2.730000e-02 -0.9996 -52.951 694.3838)">
						<stop  offset="3.946110e-03" style="stop-color:#FFFFFF;stop-opacity:0"/>
						<stop  offset="1" style="stop-color:#FEC970"/>
					</linearGradient>
					<path id="XMLID_828_" class="st21" d="M316.2,197.8c-1.1-6.5-8.3-15-13.6-6.6c-3.7,5.8-3.3,13.9-3.3,20.7v0.4
						c-0.6,0-1.2,0.1-1.8,0.1c-0.2,0-0.3,0-0.5,0.1c-0.1,0-0.3-0.1-0.5-0.1c-0.6,0-1.2,0-1.8-0.1v-0.4c0.1-5.9,0.1-11.9-1.7-17.5
						c-2.8-8.8-11-8.4-14.2-0.1c-3.1,7.9-0.2,14,5.2,17.6c2.1,1.4,4.7,2.5,7.4,3.1c0,0.2,0,0.3,0,0.5c0,4.4,0,8.8-0.1,13.1
						c0,3.9,0,7.8-0.1,11.7c0,1.8,0,3.5,0,5.2c0,2.6,0,5.2,0,7.8c1,0.1,2.1,0.1,3.2,0.2c0-2.7,0-5.3,0-8c0-1.8,0-3.5,0-5.3
						c0-3.9,0-7.8,0.1-11.7c0-4.3,0-8.6,0.1-12.9c0.6,0.1,1.2,0.1,1.8,0.1c0.2,0,0.3,0,0.5-0.1c0.1,0,0.3,0.1,0.5,0.1
						c0.6,0,1.2,0,1.8-0.1c0,4.3-0.1,8.6-0.1,13c0,3.9-0.1,7.8-0.1,11.7c0,1.7,0,3.5,0,5.2c0,0.4,0,0.8,0,1.2c0,2.3,0,4.5,0,6.8v0
						c0,0,0,0,0,0c0,0,0,0,0,0c0,0,0,0,0.1,0c0,0,0,0,0,0h0.2c0.4,0,0.7,0,1,0c0.3,0,0.6,0,0.9,0c0.3,0,0.6,0,0.9-0.1
						c0-2.6,0-5.2,0-7.8c0-0.8,0-1.5,0-2.3c0-0.9,0-1.8,0-2.7c0-3.9,0-7.8,0.1-11.7c0-4.4,0-8.8,0.1-13.2v-0.4
						C311,213.4,317.9,207.8,316.2,197.8z M280.9,200.6c0-3.5,3.6-14.1,8-7.9c3.4,4.8,2.9,12.6,2.7,19.1
						C285.9,210.6,281,207.4,280.9,200.6z M302.5,211.9c-0.2-6.5-0.6-14.3,2.9-19.1c4.5-6.2,8,4.5,7.9,8
						C313.1,207.6,308.2,210.8,302.5,211.9z"/>
					
						<linearGradient id="SVGID_12_" gradientUnits="userSpaceOnUse" x1="383.7325" y1="507.2098" x2="336.7762" y2="586.0967" gradientTransform="matrix(0.9996 -2.730000e-02 -2.730000e-02 -0.9996 -52.951 694.3838)">
						<stop  offset="3.946110e-03" style="stop-color:#FFFFFF;stop-opacity:0"/>
						<stop  offset="1" style="stop-color:#FFFFFF"/>
					</linearGradient>
					<path class="st22" d="M326.3,160c-16.5,10.1-43.7,10.9-60.7,1.7s-17.5-24.9-1-35c16.5-10.1,43.7-10.9,60.7-1.7
						C342.4,134.2,342.8,149.8,326.3,160z"/>
					
						<linearGradient id="SVGID_13_" gradientUnits="userSpaceOnUse" x1="264.4233" y1="512.024" x2="213.6761" y2="536.5997" gradientTransform="matrix(1 0 0 -1 0 711.8286)">
						<stop  offset="3.946110e-03" style="stop-color:#FFFFFF;stop-opacity:0"/>
						<stop  offset="1" style="stop-color:#FFFFFF"/>
					</linearGradient>
					<path class="st23" d="M244.1,185.4c2.9,8.3,8.2,15.9,13.9,22.3c5.9,6.7,13,13.4,14.2,22.2c0.2,1.2,0.2,2.5,0.8,3.6
						c0.6,1.1,2,1.9,3.1,1.4c0.6-0.3,1-0.8,1.3-1.4c2.4-3.9,3.3-8.7,2.3-13.2c-1.5-7.2-7.1-12.5-11.8-17.8
						c-4.5-5.2-8.4-11.8-9.8-18.6c-0.9-4.3-1.2-8.6-2.1-12.9c-0.4-2-1-4.1-2.3-5.8s-3.2-3-5.3-2.9c-2.2,0.1-4.2,1.6-5.2,3.6
						c-1,2-1.3,4.2-1.4,6.4C241.8,176.9,242.6,181.3,244.1,185.4z"/>
					
						<linearGradient id="SVGID_14_" gradientUnits="userSpaceOnUse" x1="289.4201" y1="458.6856" x2="332.6629" y2="481.9702" gradientTransform="matrix(1 0 0 -1 0 711.8286)">
						<stop  offset="3.946110e-03" style="stop-color:#FFFFFF;stop-opacity:0"/>
						<stop  offset="1" style="stop-color:#FEC970"/>
					</linearGradient>
					<path class="st24" d="M358.1,168.4c0,2.1-0.1,4-0.2,5.9c-0.1,1.4-0.2,2.8-0.4,4.1c-0.9,6.5-2.6,11.9-4.9,16.5
						c0,0.1-0.1,0.2-0.1,0.3c-5.6,11.1-14.2,17-19.9,27.1c-0.2,0.4-0.4,0.8-0.6,1.2c-2.8,5.3-1.9,10.1-1.9,10.1c0,0.5,0,1-0.1,1.5
						c0,0.2,0,0.5-0.1,0.7c0,0.1,0,0.2,0,0.3c0,0.2-0.1,0.4-0.1,0.6c0,0.2-0.1,0.4-0.1,0.6c-0.1,0.3-0.1,0.6-0.2,0.9c0,0,0,0,0,0.1
						c-0.2,0.8-0.6,1.6-1,2.3c0,0,0,0.1-0.1,0.1c1.8,2.4,2.7,5,2.6,7.7c-0.1,2-0.7,4-1.9,5.8c1,1.9,1.5,3.9,1.4,5.9
						c-0.2,6.2-5.8,11.6-14.2,14.7c0.4,1.2,0.5,2.4,0.5,3.7c-0.3,8.6-9.8,15.2-21.1,14.8c-0.6,0-1.3-0.1-1.9-0.1
						c2.5-3,5.3-5.8,6.7-8.6c4.9-9.8,5.5-21.2,6.1-31.9c0-0.2,0-0.4,0-0.6c0.5-9,1-18.1,1.5-27.1c0-0.9,0.1-1.8,0.5-2.6
						c1.1-2.5,4.2-3,6.8-3.6C344,212,355.7,190.8,358.1,168.4z"/>
					<path class="st19" d="M355.6,103.3c0,3-2.5,5.5-5.5,5.5s-5.5-2.5-5.5-5.5s2.5-5.5,5.5-5.5S355.6,100.3,355.6,103.3z"/>
					<path class="st19" d="M355.6,254.6c0,3-2.5,5.5-5.5,5.5s-5.5-2.5-5.5-5.5s2.5-5.5,5.5-5.5S355.6,251.6,355.6,254.6z"/>
					<circle class="st19" cx="250.9" cy="230.9" r="5.5"/>
					<circle class="st19" cx="361.6" cy="87.1" r="3.5"/>
					<circle class="st19" cx="355.6" cy="223.6" r="3.5"/>
					<circle class="st19" cx="259.9" cy="85.1" r="3.5"/>
					<circle class="st19" cx="365" cy="266.3" r="3.5"/>
					<circle class="st19" cx="241.9" cy="284" r="3.5"/>
				</g>
				<g>
					
						<linearGradient id="SVGID_15_" gradientUnits="userSpaceOnUse" x1="163.5558" y1="499.1449" x2="309.217" y2="499.1449" gradientTransform="matrix(1 0 0 -1 0 711.8286)">
						<stop  offset="1.694780e-03" style="stop-color:#45C0BD"/>
						<stop  offset="1" style="stop-color:#44C0BC;stop-opacity:0"/>
					</linearGradient>
					<path class="st25" d="M379,292.8V85.1c0,12.1-8,24.3-24.1,33.5c-32.1,18.5-84.1,18.5-116.2,0c-16-9.3-24.1-21.4-24.1-33.5
						v207.7l0,0c0,12.1,8,24.3,24.1,33.5c32.1,18.5,84.1,18.5,116.2,0C371,317.1,379,305,379,292.8z"/>
					
						<linearGradient id="SVGID_16_" gradientUnits="userSpaceOnUse" x1="412.6162" y1="499.1449" x2="310.3725" y2="499.1449" gradientTransform="matrix(1 0 0 -1 0 711.8286)">
						<stop  offset="1.694780e-03" style="stop-color:#45C0BD"/>
						<stop  offset="1" style="stop-color:#44C0BC;stop-opacity:0"/>
					</linearGradient>
					<path class="st26" d="M379,292.8V85.1c0,12.1-8,24.3-24.1,33.5c-32.1,18.5-84.1,18.5-116.2,0c-16-9.3-24.1-21.4-24.1-33.5
						v207.7l0,0c0,12.1,8,24.3,24.1,33.5c32.1,18.5,84.1,18.5,116.2,0C371,317.1,379,305,379,292.8z"/>
					
						<linearGradient id="SVGID_17_" gradientUnits="userSpaceOnUse" x1="296.8484" y1="702.9149" x2="296.8484" y2="540.2679" gradientTransform="matrix(1 0 0 -1 0 711.8286)">
						<stop  offset="1.694780e-03" style="stop-color:#45C0BD"/>
						<stop  offset="1" style="stop-color:#44C0BC;stop-opacity:0"/>
					</linearGradient>
					<ellipse class="st27" cx="296.8" cy="85.1" rx="82.2" ry="47.4"/>
				</g>
			</g>
			<path class="st10" d="M227,217.7L227,217.7c-3.5-2-5.6-5.7-5.6-9.7v-75.5c0-1.7,1.8-2.7,3.2-1.9l0,0c3.6,2,5.8,5.9,5.8,10v75.2
				C230.4,217.5,228.5,218.6,227,217.7z"/>
			<path class="st10" d="M227,251.7L227,251.7c-3.5-2-5.6-5.7-5.6-9.7v-10.7c0-1.7,1.8-2.7,3.2-1.9l0,0c3.6,2,5.8,5.9,5.8,10v10.4
				C230.4,251.5,228.5,252.6,227,251.7z"/>
		</g>
		<g>
			<path class="st8" d="M506.2,438.1v-49.7H395.1v49.7l0,0c0,8.2,5.4,16.4,16.3,22.7c21.7,12.5,56.9,12.5,78.6,0
				C500.8,454.5,506.2,446.3,506.2,438.1z"/>
			
				<linearGradient id="SVGID_18_" gradientUnits="userSpaceOnUse" x1="442.3604" y1="282.5349" x2="525.877" y2="282.5349" gradientTransform="matrix(1 0 0 -1 0 711.8286)">
				<stop  offset="0" style="stop-color:#FFFFFF;stop-opacity:0"/>
				<stop  offset="1" style="stop-color:#662F8C"/>
			</linearGradient>
			<path class="st28" d="M506.2,438.1v-49.7H395.1v49.7l0,0c0,8.2,5.4,16.4,16.3,22.7c21.7,12.5,56.9,12.5,78.6,0
				C500.8,454.5,506.2,446.3,506.2,438.1z"/>
			<ellipse class="st10" cx="450.6" cy="388.4" rx="55.5" ry="32.1"/>
			<g>
				
					<linearGradient id="SVGID_19_" gradientUnits="userSpaceOnUse" x1="450.6484" y1="381.1703" x2="450.6484" y2="271.1984" gradientTransform="matrix(1 0 0 -1 0 711.8286)">
					<stop  offset="1.694780e-03" style="stop-color:#45C0BD"/>
					<stop  offset="1" style="stop-color:#44C0BC;stop-opacity:0"/>
				</linearGradient>
				<ellipse class="st29" cx="450.6" cy="382.2" rx="55.5" ry="32.1"/>
				<g>
					<path class="st19" d="M490.5,292.8c0,2-1.7,3.7-3.7,3.7c-2,0-3.7-1.7-3.7-3.7c0-2,1.7-3.7,3.7-3.7S490.5,290.8,490.5,292.8z"/>
					<circle class="st19" cx="483.1" cy="372.5" r="3.7"/>
					<path class="st19" d="M423.3,344c0,2-1.7,3.7-3.7,3.7s-3.7-1.7-3.7-3.7s1.7-3.7,3.7-3.7S423.3,342,423.3,344z"/>
					<path class="st19" d="M481.7,277.2c0,1.3-1,2.3-2.3,2.3s-2.3-1-2.3-2.3c0-1.3,1-2.3,2.3-2.3S481.7,275.9,481.7,277.2z"/>
					<path class="st19" d="M471.3,382.2c0,1.3-1,2.3-2.3,2.3s-2.3-1-2.3-2.3s1-2.3,2.3-2.3S471.3,380.9,471.3,382.2z"/>
					<path class="st19" d="M421.5,273.8c0,1.3-1,2.3-2.3,2.3s-2.3-1-2.3-2.3c0-1.3,1-2.3,2.3-2.3S421.5,272.5,421.5,273.8z"/>
					<path class="st19" d="M499.1,342.4c0,1.3-1,2.3-2.3,2.3s-2.3-1-2.3-2.3c0-1.3,1-2.3,2.3-2.3S499.1,341.1,499.1,342.4z"/>
					<path class="st19" d="M415.8,376.2c0,1.3-1,2.3-2.3,2.3s-2.3-1-2.3-2.3c0-1.3,1-2.3,2.3-2.3S415.8,374.9,415.8,376.2z"/>
					<g>
						<path class="st30" d="M485.5,333.4c0,0.2,0,0.4,0,0.5c0,2.2-0.2,4.2-0.6,6.1c-0.2,1.1-0.5,2.2-0.8,3.2c-1.4,4.3-3.8,7.5-7,9.5
							l0,0l-0.3,0.2c-0.2,0.1-0.3,0.2-0.5,0.3l-8.6,5l-1.9-3.3c-3.3-0.5-7-1.7-10.8-3.9c-16.9-9.7-30.5-33.4-30.5-52.9
							c0-2,0.2-3.8,0.4-5.5c0.2-1.1,0.4-2.2,0.7-3.1c0.2-0.8,0.5-1.6,0.8-2.3l-2-3.5l8.7-5c0.3-0.2,0.6-0.3,0.9-0.5l0.5-0.3l0,0
							c3.5-1.7,7.8-2,12.6-0.8c1,0.3,2,0.6,3,1c1.6,0.6,3.3,1.4,5,2.4c0.1,0.1,0.3,0.2,0.4,0.2c0.8,0.4,1.5,0.9,2.2,1.4
							c1.5,1,2.9,2.1,4.3,3.3c0.6,0.5,1.3,1.1,1.9,1.7c1.2,1.1,2.5,2.4,3.6,3.7c0.5,0.6,1.1,1.2,1.6,1.8c1.1,1.3,2.1,2.6,3.1,3.9
							c0.5,0.6,0.9,1.3,1.3,2c0.9,1.3,1.8,2.8,2.7,4.2c0.4,0.7,0.8,1.4,1.2,2.1c0.8,1.5,1.6,2.9,2.2,4.4c0.3,0.7,0.7,1.4,1,2.2
							c0.7,1.6,1.3,3.1,1.8,4.7c0.3,0.8,0.5,1.5,0.8,2.3c0.5,1.7,0.9,3.3,1.3,5c0.2,0.8,0.3,1.7,0.5,2.5c0.3,1.8,0.5,3.6,0.6,5.4
							C485.5,332,485.5,332.7,485.5,333.4z"/>
						<g>
							<path class="st31" d="M450,278.2l-25.1,14.5l-2,1.2l-0.6-2.4l3.3-1.9l21.4-12.3C447.9,277.4,448.9,277.7,450,278.2z"/>
							<path class="st31" d="M457.6,282.2l-30.4,17.5l-0.6-2.4l28.8-16.6C456.1,281.2,456.9,281.7,457.6,282.2z"/>
							<path class="st31" d="M463.8,287.1l-32.2,18.6l-0.6-2.4l31-17.9C462.5,286,463.2,286.6,463.8,287.1z"/>
							<path class="st31" d="M469,292.6l-33.1,19.1l-0.6-2.4l32.1-18.5C467.9,291.4,468.5,292,469,292.6z"/>
							<path class="st31" d="M473.5,298.5l-33.2,19.2l-0.6-2.4l32.4-18.7C472.6,297.2,473,297.8,473.5,298.5z"/>
							<path class="st31" d="M477.3,304.8l-32.7,18.9l-0.6-2.4l32.1-18.5C476.6,303.4,477,304.1,477.3,304.8z"/>
							<path class="st31" d="M480.6,311.4L449,329.6l-0.6-2.4l31.2-18C479.9,309.9,480.3,310.6,480.6,311.4z"/>
							<path class="st31" d="M483.1,318.4l-29.7,17.2l-0.6-2.4l29.6-17.1C482.6,316.8,482.9,317.6,483.1,318.4z"/>
							<path class="st31" d="M484.8,325.8l-27.1,15.7l-0.6-2.4l27.2-15.8C484.6,324.2,484.7,325,484.8,325.8z"/>
							<path class="st31" d="M485.5,333.4c0,0.2,0,0.4,0,0.5l-23.4,13.5l-0.6-2.4l23.9-13.8C485.5,332,485.5,332.7,485.5,333.4z"/>
							<path class="st31" d="M484.9,340c-0.2,1.1-0.5,2.2-0.8,3.2l-17.6,10.2l-0.6-2.4L484.9,340z"/>
						</g>
						
							<ellipse transform="matrix(0.866 -0.5 0.5 0.866 -100.597 266.134)" class="st32" cx="446.3" cy="320.8" rx="24.9" ry="43.2"/>
						<path class="st30" d="M451.9,296.5c-1.1,0-2.1,0-3.2,0c1.2,1,2.3,2,3.4,3.2l1.9-1.1C453.3,297.8,452.6,297.1,451.9,296.5z
							 M424.9,292.6c0,0.1,0,0.1,0,0.2c0.2,0.1,0.5,0.1,0.7,0.2c0.2-0.5,0.5-0.9,0.8-1.2L424.9,292.6z M451.9,296.5
							c-1.1,0-2.1,0-3.2,0c1.2,1,2.3,2,3.4,3.2l1.9-1.1C453.3,297.8,452.6,297.1,451.9,296.5z M424.9,292.8c0.2,0.1,0.5,0.1,0.7,0.2
							c0.2-0.5,0.5-0.9,0.8-1.2l-1.5,0.9C424.9,292.7,424.9,292.8,424.9,292.8z M471.2,333.7c-0.1-0.8-0.2-1.7-0.4-2.5
							c-0.3-1.7-0.7-3.4-1.2-5.1c-0.2-0.8-0.5-1.6-0.7-2.3c-0.5-1.6-1.1-3.2-1.8-4.7c-0.3-0.7-0.6-1.5-1-2.2c-0.7-1.5-1.4-3-2.2-4.5
							c-0.4-0.7-0.8-1.4-1.2-2.1c-0.8-1.4-1.7-2.8-2.7-4.2c-0.4-0.7-0.9-1.3-1.4-1.9c-1-1.4-2.1-2.7-3.2-3.9
							c-0.5-0.6-1.1-1.2-1.6-1.8c-0.7-0.7-1.4-1.4-2.1-2.1c-0.5-0.5-1.1-1-1.7-1.5c-0.6-0.6-1.3-1.1-1.9-1.6c-1.5-1.2-3-2.2-4.6-3.1
							c0,0-0.1,0-0.1-0.1c-0.8-0.5-1.6-0.9-2.4-1.2c-2.2-1.1-4.4-1.8-6.5-2c-0.7-0.1-1.4-0.2-2.1-0.2c-1.1,0-2.1,0.1-3,0.4
							c-1.7,0.4-3,1.2-4.1,2.3l-0.3,0.3l0,0c-0.8,0.8-1.4,1.7-1.9,2.7c-0.2,0.4-0.4,0.8-0.6,1.3v0c-1.4,3.4-1.6,7.2-1.6,9.5
							c0,16.7,11.7,37.6,25.9,47c0.6,0.4,1.3,0.8,1.9,1.2c3.9,2.3,7.7,3.5,11,3.5c1.2,0,2.2-0.1,3.2-0.4c1.2-0.3,2.3-0.9,3.2-1.6
							c0.5-0.3,0.9-0.7,1.3-1.2c0.7-0.8,1.3-1.7,1.8-2.6v0c1.1-2.2,1.6-4.6,1.9-6.8c0.1-1,0.2-2,0.2-2.8c0-0.3,0-0.6,0-0.9
							C471.5,336.9,471.4,335.3,471.2,333.7z M468.9,343.5c-0.5,2.8-1.7,5.9-4,7.7c-1.2,0.9-2.8,1.5-4.9,1.5c-0.7,0-1.4-0.1-2.2-0.2
							h0c-2-0.3-4.2-1.2-6.6-2.4h0c-0.4-0.2-0.7-0.4-1.1-0.6c-14.5-8.4-26.8-29.6-26.8-46.3c0-2,0.2-5.3,1.3-8.2
							c0.2-0.7,0.6-1.3,0.9-1.9c0.2-0.5,0.5-0.9,0.8-1.2l0,0c1.1-1.4,2.7-2.4,4.8-2.8h0c0.5-0.1,1-0.1,1.5-0.1c1.9,0,4,0.5,6.2,1.4
							c0.9,0.3,1.7,0.8,2.6,1.2c0.3,0.2,0.7,0.4,1,0.6c1.3,0.7,2.5,1.5,3.7,2.5c0.7,0.5,1.3,1,2,1.6c0.2,0.1,0.3,0.2,0.4,0.4h0
							c1.2,1,2.3,2,3.4,3.2c0.6,0.6,1.1,1.2,1.7,1.8c1.1,1.2,2.2,2.5,3.2,3.9c0.5,0.6,0.9,1.3,1.4,1.9c1,1.3,1.8,2.8,2.7,4.2
							c0.4,0.7,0.8,1.3,1.2,2.1c0.8,1.5,1.5,3,2.2,4.5c0.3,0.7,0.7,1.5,1,2.2c0.7,1.6,1.2,3.2,1.7,4.8v0c0.3,0.8,0.5,1.6,0.7,2.3
							c0.5,1.7,0.8,3.4,1.1,5.1c0.1,0.9,0.2,1.7,0.3,2.5c0.1,1.2,0.2,2.3,0.2,3.5c0,0.6,0,1.4-0.1,2.2
							C469.2,341.5,469,342.5,468.9,343.5z M424.9,292.6c0,0.1,0,0.1,0,0.2c0.2,0.1,0.5,0.1,0.7,0.2c0.2-0.5,0.5-0.9,0.8-1.2
							L424.9,292.6z M451.9,296.5c-1.1,0-2.1,0-3.2,0c1.2,1,2.3,2,3.4,3.2l1.9-1.1C453.3,297.8,452.6,297.1,451.9,296.5z"/>
						<g>
							<path class="st30" d="M454.8,326.2c-0.3-0.7-0.7-1.4-1.1-2.1c-0.9-1.4-2-2.7-3.2-3.9c-0.6-0.6-1.3-1.1-1.9-1.6
								c-0.5-0.4-1-0.8-1.5-1.1c-1.2-0.8-2.1-1.5-2.7-2.2c-0.5-0.6-0.8-1.2-0.8-2c0-0.1,0-0.2,0-0.3c0.1-0.4,0.5-0.6,0.9-0.5
								c0.5,0,1.2,0.3,1.9,0.7c0.2,0.1,0.5,0.3,0.8,0.5c1.4,0.9,2.7,2,3.8,3.5c0.1,0.2,0.3,0.3,0.4,0.5l2.3-2.1l0,0h0l0.6-0.5
								c-1-1.5-2-2.7-3.1-3.8c-0.6-0.6-1.2-1.1-1.8-1.7c-0.2-0.2-0.4-0.3-0.6-0.5v-3.1l-1.6-0.9l-2.4-1.4l-1.1-0.7v3.2
								c-0.8-0.3-1.6-0.5-2.3-0.5h0c-1.7-0.1-3,0.5-3.5,2.1c-0.2,0.6-0.3,1.2-0.3,2c0,0.3,0,0.6,0,0.9c0.2,2.7,1.2,4.9,2.7,6.8l0,0
								c0,0,0,0.1,0,0.1c1,1.3,2.3,2.5,3.7,3.6c0.7,0.5,1.4,1,2.1,1.5c0,0,0,0,0.1,0.1c2,1.3,3.1,2.6,3.4,3.7
								c0.1,0.2,0.1,0.4,0.1,0.6c0,0.8-0.4,1.1-1.1,1.1c-0.6,0-1.3-0.3-2.2-0.8c-1.8-1-4.1-2.8-6.2-6.3l-3.3,2.5
								c2.2,4,4.3,6.3,6.9,8.1v3.3l5.1,2.9v-3.4c1.6,0.6,3.2,0.8,4.3,0.5c1.3-0.4,2.2-1.5,2.4-3.5v0c0-0.3,0-0.5,0-0.8
								C455.7,329.1,455.4,327.6,454.8,326.2z"/>
						</g>
					</g>
				</g>
				<g>
					
						<linearGradient id="SVGID_20_" gradientUnits="userSpaceOnUse" x1="360.5254" y1="372.4949" x2="459.0125" y2="372.4949" gradientTransform="matrix(1 0 0 -1 0 711.8286)">
						<stop  offset="1.694780e-03" style="stop-color:#45C0BD"/>
						<stop  offset="1" style="stop-color:#44C0BC;stop-opacity:0"/>
					</linearGradient>
					<path class="st33" d="M506.2,382.2V264.4c0,8.2-5.4,16.4-16.3,22.7c-21.7,12.5-56.9,12.5-78.6,0c-10.8-6.3-16.3-14.5-16.3-22.7
						v117.8l0,0c0,8.2,5.4,16.4,16.3,22.7c21.7,12.5,56.9,12.5,78.6,0C500.8,398.6,506.2,390.4,506.2,382.2z"/>
					
						<linearGradient id="SVGID_21_" gradientUnits="userSpaceOnUse" x1="528.9246" y1="372.4949" x2="459.7938" y2="372.4949" gradientTransform="matrix(1 0 0 -1 0 711.8286)">
						<stop  offset="1.694780e-03" style="stop-color:#45C0BD"/>
						<stop  offset="1" style="stop-color:#44C0BC;stop-opacity:0"/>
					</linearGradient>
					<path class="st34" d="M506.2,382.2V264.4c0,8.2-5.4,16.4-16.3,22.7c-21.7,12.5-56.9,12.5-78.6,0c-10.8-6.3-16.3-14.5-16.3-22.7
						v117.8l0,0c0,8.2,5.4,16.4,16.3,22.7c21.7,12.5,56.9,12.5,78.6,0C500.8,398.6,506.2,390.4,506.2,382.2z"/>
					
						<linearGradient id="SVGID_22_" gradientUnits="userSpaceOnUse" x1="450.6484" y1="498.9343" x2="450.6484" y2="388.9624" gradientTransform="matrix(1 0 0 -1 0 711.8286)">
						<stop  offset="1.694780e-03" style="stop-color:#45C0BD"/>
						<stop  offset="1" style="stop-color:#44C0BC;stop-opacity:0"/>
					</linearGradient>
					<ellipse class="st35" cx="450.6" cy="264.4" rx="55.5" ry="32.1"/>
				</g>
			</g>
			<path class="st10" d="M403.4,331.4L403.4,331.4c-2.3-1.3-3.8-3.8-3.8-6.6v-34c0-1.1,1.2-1.8,2.2-1.3l0,0c2.4,1.4,3.9,4,3.9,6.7
				v33.8C405.7,331.2,404.4,332,403.4,331.4z"/>
			<path class="st10" d="M403.4,354.4L403.4,354.4c-2.3-1.3-3.8-3.8-3.8-6.6v-7.2c0-1.1,1.2-1.8,2.2-1.3l0,0c2.4,1.4,3.9,4,3.9,6.7
				v7C405.7,354.2,404.4,355,403.4,354.4z"/>
		</g>
		<g>
			<path class="st8" d="M198.4,282.8v-49.7H87.3v49.7l0,0c0,8.2,5.4,16.4,16.3,22.7c21.7,12.5,56.9,12.5,78.6,0
				C193,299.2,198.4,291,198.4,282.8z"/>
			
				<linearGradient id="SVGID_23_" gradientUnits="userSpaceOnUse" x1="134.5988" y1="437.8449" x2="218.1151" y2="437.8449" gradientTransform="matrix(1 0 0 -1 0 711.8286)">
				<stop  offset="0" style="stop-color:#FFFFFF;stop-opacity:0"/>
				<stop  offset="1" style="stop-color:#662F8C"/>
			</linearGradient>
			<path class="st36" d="M198.4,282.8v-49.7H87.3v49.7l0,0c0,8.2,5.4,16.4,16.3,22.7c21.7,12.5,56.9,12.5,78.6,0
				C193,299.2,198.4,291,198.4,282.8z"/>
			<ellipse class="st10" cx="142.9" cy="233.1" rx="55.5" ry="32.1"/>
			<g>
				
					<linearGradient id="SVGID_24_" gradientUnits="userSpaceOnUse" x1="142.8884" y1="536.4778" x2="142.8884" y2="426.5058" gradientTransform="matrix(1 0 0 -1 0 711.8286)">
					<stop  offset="1.694780e-03" style="stop-color:#45C0BD"/>
					<stop  offset="1" style="stop-color:#44C0BC;stop-opacity:0"/>
				</linearGradient>
				<ellipse class="st37" cx="142.9" cy="226.9" rx="55.5" ry="32.1"/>
				<g>
					<circle class="st38" cx="179" cy="137.5" r="3.7"/>
					<circle class="st38" cx="175.3" cy="217.2" r="3.7"/>
					<path class="st38" d="M115.5,188.7c0,2-1.7,3.7-3.7,3.7s-3.7-1.7-3.7-3.7s1.7-3.7,3.7-3.7S115.5,186.7,115.5,188.7z"/>
					<path class="st38" d="M174,121.9c0,1.3-1,2.3-2.3,2.3s-2.3-1-2.3-2.3s1-2.3,2.3-2.3C172.9,119.5,174,120.6,174,121.9z"/>
					<path class="st38" d="M163.6,226.9c0,1.3-1,2.3-2.3,2.3s-2.3-1-2.3-2.3s1-2.3,2.3-2.3C162.5,224.5,163.6,225.6,163.6,226.9z"/>
					<path class="st38" d="M113.8,118.5c0,1.3-1.1,2.3-2.3,2.3s-2.3-1-2.3-2.3s1.1-2.3,2.3-2.3S113.8,117.2,113.8,118.5z"/>
					<path class="st38" d="M191.3,187.1c0,1.3-1,2.3-2.3,2.3s-2.3-1-2.3-2.3s1-2.3,2.3-2.3S191.3,185.8,191.3,187.1z"/>
					<path class="st38" d="M108.1,220.9c0,1.3-1.1,2.3-2.3,2.3s-2.3-1-2.3-2.3s1.1-2.3,2.3-2.3S108.1,219.6,108.1,220.9z"/>
					<g>
						<path class="st38" d="M177.7,178.1c0,0.2,0,0.4,0,0.5c0,2.2-0.2,4.2-0.6,6.1c-0.2,1.1-0.5,2.2-0.8,3.2c-1.4,4.3-3.8,7.5-7,9.5
							l0,0l-0.3,0.2c-0.2,0.1-0.3,0.2-0.5,0.3l-8.6,5l-1.9-3.3c-3.4-0.5-7-1.7-10.8-3.9c-16.9-9.7-30.5-33.4-30.5-52.9
							c0-2,0.1-3.8,0.4-5.5c0.2-1.1,0.4-2.1,0.7-3.1c0.2-0.8,0.5-1.6,0.8-2.3l-2-3.5l8.7-5c0.3-0.2,0.6-0.3,0.9-0.5l0.5-0.3l0,0
							c3.5-1.7,7.8-2,12.6-0.8c1,0.3,2,0.6,3,1c1.6,0.6,3.3,1.4,5,2.4c0.1,0.1,0.3,0.1,0.4,0.2c0.8,0.4,1.5,0.9,2.2,1.4
							c1.5,1,2.9,2.1,4.3,3.3c0.6,0.5,1.3,1.1,1.9,1.6c1.2,1.1,2.5,2.4,3.6,3.6c0.5,0.6,1.1,1.2,1.6,1.8c1.1,1.3,2.1,2.6,3.1,3.9
							c0.5,0.6,0.9,1.3,1.4,2c0.9,1.4,1.8,2.8,2.7,4.2c0.4,0.7,0.8,1.4,1.2,2.1c0.8,1.5,1.6,2.9,2.2,4.4c0.3,0.7,0.7,1.4,1,2.2
							c0.7,1.6,1.3,3.1,1.8,4.7c0.3,0.8,0.5,1.5,0.8,2.3c0.5,1.7,0.9,3.4,1.3,5c0.2,0.8,0.3,1.6,0.5,2.5c0.3,1.8,0.5,3.6,0.6,5.4
							C177.7,176.7,177.7,177.4,177.7,178.1z"/>
						
							<linearGradient id="SVGID_25_" gradientUnits="userSpaceOnUse" x1="139.0548" y1="567.0441" x2="171.5938" y2="504.399" gradientTransform="matrix(1 0 0 -1 0 711.8286)">
							<stop  offset="0" style="stop-color:#FFFFFF;stop-opacity:0"/>
							<stop  offset="1" style="stop-color:#662F8C"/>
						</linearGradient>
						<path class="st39" d="M177.7,178.1c0,0.2,0,0.4,0,0.5c0,2.2-0.2,4.2-0.6,6.1c-0.2,1.1-0.5,2.2-0.8,3.2c-1.4,4.3-3.8,7.5-7,9.5
							l0,0l-0.3,0.2c-0.2,0.1-0.3,0.2-0.5,0.3l-8.6,5l-1.9-3.3c-3.4-0.5-7-1.7-10.8-3.9c-16.9-9.7-30.5-33.4-30.5-52.9
							c0-2,0.1-3.8,0.4-5.5c0.2-1.1,0.4-2.1,0.7-3.1c0.2-0.8,0.5-1.6,0.8-2.3l-2-3.5l8.7-5c0.3-0.2,0.6-0.3,0.9-0.5l0.5-0.3l0,0
							c3.5-1.7,7.8-2,12.6-0.8c1,0.3,2,0.6,3,1c1.6,0.6,3.3,1.4,5,2.4c0.1,0.1,0.3,0.1,0.4,0.2c0.8,0.4,1.5,0.9,2.2,1.4
							c1.5,1,2.9,2.1,4.3,3.3c0.6,0.5,1.3,1.1,1.9,1.6c1.2,1.1,2.5,2.4,3.6,3.6c0.5,0.6,1.1,1.2,1.6,1.8c1.1,1.3,2.1,2.6,3.1,3.9
							c0.5,0.6,0.9,1.3,1.4,2c0.9,1.4,1.8,2.8,2.7,4.2c0.4,0.7,0.8,1.4,1.2,2.1c0.8,1.5,1.6,2.9,2.2,4.4c0.3,0.7,0.7,1.4,1,2.2
							c0.7,1.6,1.3,3.1,1.8,4.7c0.3,0.8,0.5,1.5,0.8,2.3c0.5,1.7,0.9,3.4,1.3,5c0.2,0.8,0.3,1.6,0.5,2.5c0.3,1.8,0.5,3.6,0.6,5.4
							C177.7,176.7,177.7,177.4,177.7,178.1z"/>
						<ellipse transform="matrix(0.866 -0.5 0.5 0.866 -64.174 91.4452)" class="st40" cx="138.5" cy="165.5" rx="24.9" ry="43.2"/>
						<ellipse transform="matrix(0.866 -0.5 0.5 0.866 -64.1742 91.4451)" class="st41" cx="138.5" cy="165.5" rx="19.6" ry="34"/>
						<ellipse transform="matrix(0.866 -0.5 0.5 0.866 -64.174 91.4451)" class="st41" cx="138.5" cy="165.5" rx="13.7" ry="23.7"/>
						<path class="st42" d="M148.5,171.2c0,6.3-4.5,8.9-9.9,5.7c-5.5-3.2-9.9-10.9-9.9-17.2c0-6.3,4.5-8.9,9.9-5.7
							C144,157.2,148.5,164.9,148.5,171.2z"/>
						<path class="st10" d="M142.5,167.7c0,2.5-1.8,3.5-3.9,2.3c-2.2-1.2-3.9-4.3-3.9-6.8c0-2.5,1.8-3.5,3.9-2.3
							C140.7,162.2,142.5,165.2,142.5,167.7z"/>
					</g>
				</g>
				<g>
					
						<linearGradient id="SVGID_26_" gradientUnits="userSpaceOnUse" x1="52.7638" y1="527.8049" x2="151.2508" y2="527.8049" gradientTransform="matrix(1 0 0 -1 0 711.8286)">
						<stop  offset="1.694780e-03" style="stop-color:#45C0BD"/>
						<stop  offset="1" style="stop-color:#44C0BC;stop-opacity:0"/>
					</linearGradient>
					<path class="st43" d="M198.4,226.9V109.1c0,8.2-5.4,16.4-16.3,22.7c-21.7,12.5-56.9,12.5-78.6,0c-10.9-6.3-16.3-14.5-16.3-22.7
						v117.8l0,0c0,8.2,5.4,16.4,16.3,22.7c21.7,12.5,56.9,12.5,78.6,0C193,243.3,198.4,235.1,198.4,226.9z"/>
					
						<linearGradient id="SVGID_27_" gradientUnits="userSpaceOnUse" x1="221.1629" y1="527.8049" x2="152.0321" y2="527.8049" gradientTransform="matrix(1 0 0 -1 0 711.8286)">
						<stop  offset="1.694780e-03" style="stop-color:#45C0BD"/>
						<stop  offset="1" style="stop-color:#44C0BC;stop-opacity:0"/>
					</linearGradient>
					<path class="st44" d="M198.4,226.9V109.1c0,8.2-5.4,16.4-16.3,22.7c-21.7,12.5-56.9,12.5-78.6,0c-10.9-6.3-16.3-14.5-16.3-22.7
						v117.8l0,0c0,8.2,5.4,16.4,16.3,22.7c21.7,12.5,56.9,12.5,78.6,0C193,243.3,198.4,235.1,198.4,226.9z"/>
					
						<linearGradient id="SVGID_28_" gradientUnits="userSpaceOnUse" x1="142.8884" y1="654.2417" x2="142.8884" y2="544.2698" gradientTransform="matrix(1 0 0 -1 0 711.8286)">
						<stop  offset="1.694780e-03" style="stop-color:#45C0BD"/>
						<stop  offset="1" style="stop-color:#44C0BC;stop-opacity:0"/>
					</linearGradient>
					<ellipse class="st45" cx="142.9" cy="109.1" rx="55.5" ry="32.1"/>
				</g>
			</g>
			<path class="st10" d="M95.7,176.1L95.7,176.1c-2.3-1.4-3.8-3.9-3.8-6.6v-34c0-1.1,1.2-1.8,2.2-1.3l0,0c2.4,1.4,3.9,4,3.9,6.7
				v33.8C97.9,175.9,96.7,176.7,95.7,176.1z"/>
			<path class="st10" d="M95.7,199.1L95.7,199.1c-2.3-1.4-3.8-3.9-3.8-6.6v-7.2c0-1.1,1.2-1.8,2.2-1.3l0,0c2.4,1.4,3.9,4,3.9,6.7v7
				C97.9,198.9,96.7,199.7,95.7,199.1z"/>
		</g>
		<g>
			<path class="st46" d="M312.3,367.5c0,0-9.2,9.8-9.8,19.5l1.8,3.8l3.7-2.7c0,0,2.6-12.7,7.4-16.5L312.3,367.5z"/>
			<path class="st47" d="M333.8,481.7c0,0,0.6,6-2.3,5.7c-3.4-0.4-14.1-7.5-11.7-9.8s11.3,1.8,11.3,1.8L333.8,481.7z"/>
			<path class="st47" d="M314.9,490.7c0,0,0.6,6-2.3,5.7c-3.4-0.4-14.1-7.5-11.7-9.8s11.3,1.8,11.3,1.8L314.9,490.7z"/>
			<rect x="317.6" y="340.2" class="st48" width="6.3" height="8.9"/>
			<path class="st46" d="M310.9,388.4c0,0-10.2,23.2-2.5,102.9c0,0.4,0.3,0.8,0.6,1c1.3,0.8,4.7,2.1,6.5-2.4c0-0.1,0.1-0.2,0.1-0.4
				l6.6-83.5c0-1.3,0.8-1.4,0.9-0.1l4.1,76.3c0,0.6,0.4,1.1,0.9,1.3c1.8,0.7,5.7,1.5,6.4-4.2c0,0,6.9-82.5-1.2-93.7L310.9,388.4z"/>
			<path class="st47" d="M333.3,383.1c-0.2,0.3-0.4,0.7-0.7,1c-2.3,2.4-8.5,6.6-21,2.2c-0.3-0.1-0.5-0.2-0.7-0.4v2.5
				c0.2,0.2,0.5,0.3,0.7,0.4c12.4,4.4,18.7,0.2,21-2.2c0.3-0.3,0.5-0.6,0.7-1V383.1z"/>
			<path class="st10" d="M358.6,307.4c0,0,0-5.4,0.7-5.5c0.5-0.1,0.5,1.7,0.5,1.7s0.6-4,1.5-3.8c0.3,0.1-0.1,2.5-0.1,2.5
				s0.4-1.4,2.6,0c0.7,0.4,0.5,1.8-2.1,5.9L358.6,307.4z"/>
			<path class="st49" d="M331.9,343.6c0,0,18.9-1.6,26.4-36.7c0,0,2-0.4,3.6,1.3c0,0-1.1,42.1-27.3,50.2L331.9,343.6z"/>
			<path class="st50" d="M317.6,346.1l6.3-1.4l10-1.3c2.4-0.3,4.2,3.2,4.4,7c0.3,7.2-4.5,31.7-4.5,31.7c-0.1,1-0.5,1.9-1.2,2.6
				c-2.3,2.4-8.5,6.7-21,2.2c-0.8-0.3-1.4-1-1.5-1.8l-4.6-28.9c-0.2-1.5,0.4-3,1.6-3.9L317.6,346.1z"/>
			<path class="st10" d="M309.7,329c0,0,0.8,8.6,4.3,13.1c3.6,4.4,10.5-2.9,11.5-5c1-2.1,2.7-15.5-8-15.5
				C310.6,321.6,309.4,325.9,309.7,329z"/>
			<path class="st46" d="M320.1,334.4c0,0-3.6-2.5-4.9-6.9c0,0-0.8-0.5-5.2,3.2c0,0-5,0-2.6-5.2c2.3-5.2,11.8-11.8,16.4-6.6
				c0,0,8.7-1.5,7,9.8c-2.2,14.9-9.2,12.4-10.9,9C318.1,334.4,320.1,334.4,320.1,334.4z"/>
			<path class="st10" d="M317.8,332.6c0,0,1.4-2.8,2.6-1.2c1.2,1.7-0.2,5.1-2.9,5.6L317.8,332.6z"/>
			<polygon class="st46" points="278.4,343.6 291.8,356.9 305.3,348.9 291.8,335.1 			"/>
			<polyline class="st51" points="290.7,350.7 290.7,347.7 293.5,347.7 293.5,341.4 			"/>
			<polyline class="st51" points="290.8,343.1 293.3,340.6 296.2,343.5 			"/>
			<path class="st10" d="M284.2,349.3c0-0.1,1-1.2,1.9-2.1c0.2-0.2,0.6,0,0.6,0.3l-0.6,2c0,0,2.9-0.8,1.2,3.9l-2.8,0.8L284.2,349.3z
				"/>
			<path class="st49" d="M287.6,353.4c0,0,14.7,26.4,6,28.1c-8.8,1.7-9.2-27.2-9.2-27.2S285.2,353.1,287.6,353.4z"/>
			<path class="st49" d="M307.1,352.3c0,0-4,2-9.4,9.8c-7.5,10.6-10.9,17-4,19.3c1.8,0.6,13.9-12.1,13.9-12.1
				S312.5,358.7,307.1,352.3z"/>
			<path class="st49" d="M316.3,346.9l1.3-2.2c0,0,2.2-1.3,6.3-1.4l1.5,1.3C325.4,344.6,325.1,346.1,316.3,346.9z"/>
		</g>
		<g>
			<polygon class="st8" points="187.3,320.7 139.5,428.6 135.1,426 135.1,363.3 			"/>
			<polygon class="st8" points="191.6,323.3 191.6,398.5 139.5,428.6 139.5,365.9 			"/>
			
				<linearGradient id="SVGID_29_" gradientUnits="userSpaceOnUse" x1="140.1249" y1="386.7669" x2="199.1208" y2="268.7754" gradientTransform="matrix(1 0 0 -1 0 711.8286)">
				<stop  offset="0" style="stop-color:#FFFFFF;stop-opacity:0"/>
				<stop  offset="1" style="stop-color:#662F8C"/>
			</linearGradient>
			<polygon class="st52" points="191.6,323.3 191.6,398.5 139.5,428.6 139.5,365.9 			"/>
		</g>
		<g>
			<polygon class="st8" points="271.3,369.1 223.5,477 219.1,474.4 219.1,411.7 			"/>
			<polygon class="st8" points="275.6,371.7 275.6,446.9 223.5,477 223.5,414.3 			"/>
			
				<linearGradient id="SVGID_30_" gradientUnits="userSpaceOnUse" x1="180.2902" y1="287.4749" x2="340.6102" y2="287.4749" gradientTransform="matrix(1 0 0 -1 0 711.8286)">
				<stop  offset="0" style="stop-color:#FFFFFF;stop-opacity:0"/>
				<stop  offset="1" style="stop-color:#662F8C"/>
			</linearGradient>
			<polygon class="st53" points="275.6,371.7 275.6,446.9 223.5,477 223.5,414.3 			"/>
		</g>
		<polygon class="st8" points="223.5,418.5 135.1,367.5 275.6,371.7 275.6,375.9 		"/>
		
			<linearGradient id="SVGID_31_" gradientUnits="userSpaceOnUse" x1="180.2901" y1="318.8149" x2="340.6093" y2="318.8149" gradientTransform="matrix(1 0 0 -1 0 711.8286)">
			<stop  offset="0" style="stop-color:#FFFFFF;stop-opacity:0"/>
			<stop  offset="1" style="stop-color:#662F8C"/>
		</linearGradient>
		<polygon class="st54" points="223.5,418.5 135.1,367.5 275.6,371.7 275.6,375.9 		"/>
		<polygon class="st10" points="223.5,414.3 135.1,363.3 187.3,320.7 275.6,371.7 		"/>
		<polygon class="st46" points="222.3,407.3 145.4,362.9 188.5,327.7 265.3,372.1 		"/>
		
			<linearGradient id="SVGID_32_" gradientUnits="userSpaceOnUse" x1="199.3085" y1="380.3069" x2="195.1851" y2="339.662" gradientTransform="matrix(1 0 0 -1 0 711.8286)">
			<stop  offset="3.946110e-03" style="stop-color:#FFFFFF;stop-opacity:0"/>
			<stop  offset="1" style="stop-color:#FEC970"/>
		</linearGradient>
		<path class="st55" d="M202.8,368.4l-29.3-16.9c-0.7-0.4-0.8-1.3-0.1-1.8l15.4-12.6c0.8-0.7,2-0.8,2.9-0.2l28.9,16.7
			c0.9,0.5,1,1.7,0.2,2.4l-15.1,12.3C204.9,368.9,203.8,369,202.8,368.4z"/>
		
			<linearGradient id="SVGID_33_" gradientUnits="userSpaceOnUse" x1="185.4068" y1="355.3915" x2="175.0497" y2="335.7488" gradientTransform="matrix(1 0 0 -1 0 711.8286)">
			<stop  offset="0" style="stop-color:#AB6CAD;stop-opacity:0"/>
			<stop  offset="1" style="stop-color:#AB6CAD"/>
		</linearGradient>
		<path class="st56" d="M189.7,378.9L160.4,362c-0.7-0.4-0.8-1.3-0.1-1.8l7.6-6.1c0.8-0.7,2-0.8,2.9-0.2l28.9,16.7
			c0.9,0.5,1,1.7,0.2,2.4l-7.3,5.8C191.8,379.4,190.6,379.5,189.7,378.9z"/>
		<g>
			
				<linearGradient id="SVGID_34_" gradientUnits="userSpaceOnUse" x1="209.7271" y1="340.1093" x2="200.0889" y2="321.83" gradientTransform="matrix(1 0 0 -1 0 711.8286)">
				<stop  offset="1.694780e-03" style="stop-color:#45C0BD"/>
				<stop  offset="1" style="stop-color:#44C0BC;stop-opacity:0"/>
			</linearGradient>
			<path class="st57" d="M204.5,387.8l-9.5-5.5c-0.7-0.4-0.8-1.3-0.1-1.8l7.6-6.1c0.8-0.7,2-0.8,2.9-0.2l9.1,5.2
				c0.9,0.5,1,1.7,0.2,2.4l-7.3,5.8C206.6,388.2,205.4,388.3,204.5,387.8z"/>
			
				<linearGradient id="SVGID_35_" gradientUnits="userSpaceOnUse" x1="224.9324" y1="340.4822" x2="215.6116" y2="310.1895" gradientTransform="matrix(1 0 0 -1 0 711.8286)">
				<stop  offset="1.694780e-03" style="stop-color:#EF5451"/>
				<stop  offset="1" style="stop-color:#EF5451;stop-opacity:0"/>
			</linearGradient>
			<path class="st58" d="M219.5,396.2l-10.2-6c-0.7-0.4-0.8-1.3-0.1-1.8l7.6-6.1c0.8-0.7,2-0.8,2.9-0.2l9.8,5.8
				c0.9,0.5,1,1.7,0.2,2.4l-7.3,5.8C221.5,396.7,220.4,396.8,219.5,396.2z"/>
		</g>
		<polygon class="st8" points="223.5,418.5 223.5,414.3 135.1,363.3 135.1,367.5 		"/>
		<path class="st59" d="M179.3,350.6c0.1-0.2,14.2-1.1,14.2-1.1l2.7,4.9h17l-3.7-1.8"/>
		<line class="st59" x1="213.3" y1="354.4" x2="213.3" y2="357.3"/>
		<ellipse class="st40" cx="229.1" cy="360.2" rx="1.8" ry="1"/>
		<ellipse class="st60" cx="234.2" cy="363.2" rx="1.8" ry="1"/>
		<path class="st40" d="M240.6,366.8c-0.7,0.4-1.8,0.4-2.5,0s-0.7-1,0-1.5s1.8-0.4,2.5,0S241.3,366.4,240.6,366.8z"/>
		<path class="st40" d="M245.7,369.8c-0.7,0.4-1.8,0.4-2.5,0s-0.7-1,0-1.5s1.8-0.4,2.5,0S246.4,369.4,245.7,369.8z"/>
		<path class="st40" d="M250.9,372.7c-0.7,0.4-1.8,0.4-2.5,0s-0.7-1,0-1.5s1.8-0.4,2.5,0C251.6,371.6,251.6,372.3,250.9,372.7z"/>
		<path class="st40" d="M226.1,364.2c-0.7,0.4-1.8,0.4-2.5,0s-0.7-1,0-1.5s1.8-0.4,2.5,0C226.8,363.1,226.8,363.8,226.1,364.2z"/>
		<path class="st40" d="M231.3,367.1c-0.7,0.4-1.8,0.4-2.5,0s-0.7-1,0-1.5s1.8-0.4,2.5,0C232,366.1,232,366.7,231.3,367.1z"/>
		<path class="st40" d="M236.4,370c-0.7,0.4-1.8,0.4-2.5,0s-0.7-1,0-1.5s1.8-0.4,2.5,0C237.1,369,237.1,369.6,236.4,370z"/>
		<path class="st60" d="M241.5,373c-0.7,0.4-1.8,0.4-2.5,0s-0.7-1,0-1.5s1.8-0.4,2.5,0C242.2,371.9,242.2,372.6,241.5,373z"/>
		<path class="st60" d="M246.7,375.9c-0.7,0.4-1.8,0.4-2.5,0s-0.7-1,0-1.5s1.8-0.4,2.5,0S247.3,375.5,246.7,375.9z"/>
		<path class="st60" d="M221.9,367.4c-0.7,0.4-1.8,0.4-2.5,0s-0.7-1,0-1.5s1.8-0.4,2.5,0C222.6,366.3,222.6,367,221.9,367.4z"/>
		<path class="st40" d="M227,370.3c-0.7,0.4-1.8,0.4-2.5,0s-0.7-1,0-1.5s1.8-0.4,2.5,0C227.7,369.3,227.7,369.9,227,370.3z"/>
		<ellipse class="st60" cx="230.9" cy="372.5" rx="1.8" ry="1"/>
		<path class="st40" d="M237.3,376.2c-0.7,0.4-1.8,0.4-2.5,0s-0.7-1,0-1.5s1.8-0.4,2.5,0C238,375.1,238,375.8,237.3,376.2z"/>
		<path class="st40" d="M242.4,379.1c-0.7,0.4-1.8,0.4-2.5,0s-0.7-1,0-1.5s1.8-0.4,2.5,0C243.1,378,243.1,378.7,242.4,379.1z"/>
		<path class="st40" d="M217.7,370.6c-0.7,0.4-1.8,0.4-2.5,0s-0.7-1,0-1.5s1.8-0.4,2.5,0C218.4,369.5,218.4,370.2,217.7,370.6z"/>
		<path class="st40" d="M222.8,373.5c-0.7,0.4-1.8,0.4-2.5,0s-0.7-1,0-1.5s1.8-0.4,2.5,0C223.5,372.5,223.5,373.1,222.8,373.5z"/>
		<path class="st40" d="M227.9,376.4c-0.7,0.4-1.8,0.4-2.5,0s-0.7-1,0-1.5s1.8-0.4,2.5,0C228.6,375.4,228.6,376,227.9,376.4z"/>
		<path class="st40" d="M233.1,379.4c-0.7,0.4-1.8,0.4-2.5,0s-0.7-1,0-1.5s1.8-0.4,2.5,0S233.8,379,233.1,379.4z"/>
		<path class="st60" d="M238.2,382.3c-0.7,0.4-1.8,0.4-2.5,0s-0.7-1,0-1.5s1.8-0.4,2.5,0S238.9,381.9,238.2,382.3z"/>
		<ellipse class="st60" cx="212.2" cy="373.1" rx="1.8" ry="1"/>
		<ellipse class="st40" cx="217.3" cy="376" rx="1.8" ry="1"/>
		<path class="st60" d="M223.7,379.7c-0.7,0.4-1.8,0.4-2.5,0s-0.7-1,0-1.5s1.8-0.4,2.5,0C224.4,378.6,224.4,379.3,223.7,379.7z"/>
		<ellipse class="st40" cx="227.6" cy="381.9" rx="1.8" ry="1"/>
		<path class="st60" d="M234,385.5c-0.7,0.4-1.8,0.4-2.5,0s-0.7-1,0-1.5s1.8-0.4,2.5,0C234.7,384.5,234.7,385.1,234,385.5z"/>
		<g>
			<line class="st61" x1="169" y1="357" x2="195" y2="372.2"/>
			<line class="st61" x1="167.1" y1="358.5" x2="193.1" y2="373.7"/>
			<line class="st61" x1="165.2" y1="360" x2="191.2" y2="375.2"/>
		</g>
		<g>
			<path class="st46" d="M155.7,358.5c0,0,9.7,10.3,10.3,20.5l-1.9,4l-3.9-2.8c0,0-2.8-13.5-7.8-17.5L155.7,358.5z"/>
			<path class="st47" d="M133,479.1c0,0-0.7,6.4,2.5,6c3.6-0.4,14.9-8,12.4-10.3s-11.9,1.9-11.9,1.9L133,479.1z"/>
			<path class="st47" d="M153,488.5c0,0-0.7,6.4,2.5,6c3.6-0.4,14.9-8,12.4-10.3s-11.9,1.9-11.9,1.9L153,488.5z"/>
			<rect x="143.4" y="329.7" class="st10" width="6.7" height="9.4"/>
			<path class="st46" d="M157.2,380.5c0,0,10.7,24.5,2.7,108.6c0,0.4-0.3,0.8-0.7,1c-1.4,0.8-5,2.2-6.8-2.5c0-0.1-0.1-0.3-0.1-0.4
				l-7-88.1c-0.1-1.4-0.8-1.5-0.9-0.1l-4.3,80.5c0,0.6-0.4,1.1-1,1.3c-1.9,0.7-6,1.5-6.8-4.4c0,0-7.3-87.1,1.2-98.9L157.2,380.5z"/>
			<path class="st47" d="M133.6,375c0.2,0.4,0.4,0.7,0.7,1c2.4,2.5,9,7,22.1,2.3c0.3-0.1,0.6-0.3,0.8-0.5v2.7
				c-0.2,0.2-0.5,0.4-0.8,0.5c-13.1,4.7-19.7,0.2-22.1-2.3c-0.3-0.3-0.5-0.6-0.7-1V375z"/>
			<path class="st50" d="M150.1,336l-6.7-1.5l-10.5-1.4c-2.6-0.3-4.4,3.4-4.6,7.4c-0.4,7.6,4.7,33.4,4.7,33.4c0.1,1,0.5,2,1.2,2.8
				c2.4,2.5,9,7,22.2,2.3c0.8-0.3,1.4-1,1.6-1.9l4.9-30.5c0.3-1.6-0.4-3.2-1.7-4.1L150.1,336z"/>
			<path class="st10" d="M158.4,317.9c0,0-0.8,9.1-4.6,13.8s-11.1-3-12.1-5.3c-1.1-2.2-2.9-16.3,8.5-16.3
				C157.5,310.1,158.8,314.6,158.4,317.9z"/>
			<path class="st46" d="M147.5,323.6c0,0,3.8-2.7,5.2-7.3c0,0,0.8-0.5,5.5,3.4c0,0,5.2,0,2.8-5.5c-2.4-5.5-12.5-12.5-17.3-7
				c0,0-9.2-1.5-7.4,10.4c2.4,15.7,9.7,13.1,11.5,9.5C149.6,323.6,147.5,323.6,147.5,323.6z"/>
			<path class="st10" d="M149.9,321.7c0,0-1.5-3-2.8-1.2s0.3,5.4,3,5.9L149.9,321.7z"/>
			<path class="st10" d="M205,375.4c0.1,0,1,1.4,1.7,2.4c0.2,0.3-0.1,0.7-0.5,0.5l-1.9-1c0,0,0.1,3.1-4.3,0.3l-0.1-3L205,375.4z"/>
			<path class="st49" d="M200.8,374.5c0,0-27.8-15.8-29.6-6.5c-1.8,9.2,28.6,9.9,28.6,9.9S201.2,377,200.8,374.5z"/>
			<path class="st49" d="M161.1,342.4c0,0,4.2,2.1,10,10.3c7.9,11.2,11.5,17.9,4.2,20.4c-1.9,0.6-14.6-12.8-14.6-12.8
				S155.5,349.3,161.1,342.4z"/>
			<path class="st49" d="M151.5,336.8l-1.4-2.3c0,0-2.3-1.4-6.7-1.5l-1.6,1.4C141.8,334.3,142.2,335.9,151.5,336.8z"/>
		</g>
	</g>
	
		<linearGradient id="SVGID_36_" gradientUnits="userSpaceOnUse" x1="958.3061" y1="-2197.5835" x2="958.3061" y2="-2056.3372" gradientTransform="matrix(-0.999 -4.390000e-02 -4.390000e-02 0.999 1339.3934 2372.7961)">
		<stop  offset="1.860120e-03" style="stop-color:#994399"/>
		<stop  offset="1" style="stop-color:#2F2141"/>
	</linearGradient>
	<path class="st62" d="M451.8,167.8c5.5,14.9,25.9,34,42.7,26.9c8.3-3.5,12.8-15.2,7.3-22.3c-4-5.1-11.1-6.3-16.2-10.2
		c-4.6-3.5-7.2-8.8-10.7-13.4c-3.5-4.6-8.6-8.8-14.3-8.1c-12,1.3-12,17.8-9.2,26.3C451.5,167.2,451.6,167.5,451.8,167.8z"/>
</g>
</svg>
